<svg width="103" height="22" viewBox="0 0 103 22" fill="none" xmlns="http://www.w3.org/2000/svg">
<path d="M12.088 21.384C9.67733 21.384 7.608 20.936 5.88 20.04C4.152 19.1227 2.82933 17.896 1.912 16.36C1.016 14.8027 0.568 13.0853 0.568 11.208C0.568 9.62933 0.866667 8.2 1.464 6.92C2.08267 5.61867 2.936 4.50933 4.024 3.592C5.13333 2.65333 6.424 1.928 7.896 1.416C9.368 0.903999 10.968 0.647999 12.696 0.647999C13.656 0.647999 14.648 0.722666 15.672 0.872C16.7173 1.02133 17.56 1.23467 18.2 1.512C18.392 1.576 18.5093 1.66133 18.552 1.768C18.616 1.85333 18.6587 2.01333 18.68 2.248L19.096 6.696C19.096 6.76 19.0427 6.80267 18.936 6.824C18.8293 6.84533 18.7547 6.81333 18.712 6.728C17.9867 5.10667 16.9627 3.83733 15.64 2.92C14.3387 1.98133 12.8347 1.512 11.128 1.512C8.90933 1.512 7.23467 2.29067 6.104 3.848C4.99467 5.384 4.44 7.432 4.44 9.992C4.44 12.1467 4.80267 14.0453 5.528 15.688C6.27467 17.3093 7.27733 18.5787 8.536 19.496C9.816 20.392 11.2667 20.84 12.888 20.84C13.6987 20.84 14.3493 20.744 14.84 20.552C15.3307 20.36 15.6827 19.9867 15.896 19.432C16.1307 18.8773 16.248 18.056 16.248 16.968C16.248 15.944 16.184 15.1973 16.056 14.728C15.9493 14.2373 15.672 13.9173 15.224 13.768C14.776 13.6187 14.0613 13.544 13.08 13.544C12.952 13.544 12.888 13.4587 12.888 13.288C12.888 13.1173 12.9413 13.032 13.048 13.032C14.52 13.1173 15.8533 13.1707 17.048 13.192C18.2427 13.192 19.5013 13.16 20.824 13.096C20.9307 13.096 20.984 13.1707 20.984 13.32C20.984 13.4693 20.9307 13.544 20.824 13.544C20.4613 13.5227 20.1947 13.5973 20.024 13.768C19.8747 13.9173 19.7787 14.2587 19.736 14.792C19.6933 15.3253 19.672 16.1573 19.672 17.288C19.672 17.992 19.6933 18.5147 19.736 18.856C19.7787 19.1973 19.8107 19.4533 19.832 19.624C19.8747 19.7733 19.896 19.9333 19.896 20.104C19.896 20.232 19.864 20.3173 19.8 20.36C19.7573 20.4027 19.6613 20.4453 19.512 20.488C18.3387 20.744 17.1013 20.9573 15.8 21.128C14.52 21.2987 13.2827 21.384 12.088 21.384ZM38.96 21C38.64 21 38.1173 20.584 37.392 19.752C36.688 18.92 35.8347 17.7253 34.832 16.168C33.8293 14.5893 32.6987 12.712 31.44 10.536L34.384 9.608C36.0907 12.296 37.5413 14.4507 38.736 16.072C39.952 17.672 41.0293 18.8347 41.968 19.56C42.9067 20.264 43.8027 20.616 44.656 20.616C44.6987 20.616 44.72 20.68 44.72 20.808C44.72 20.936 44.6987 21 44.656 21C43.1627 21 41.9467 21 41.008 21C40.0693 21 39.3867 21 38.96 21ZM31.664 0.903999C33.6267 0.903999 35.1413 1.26667 36.208 1.992C37.296 2.696 37.84 3.688 37.84 4.968C37.84 5.77867 37.6373 6.54667 37.232 7.272C36.848 7.99733 36.3253 8.648 35.664 9.224C35.024 9.77867 34.288 10.216 33.456 10.536C32.6453 10.856 31.8133 11.016 30.96 11.016C30.6613 11.016 30.352 11.016 30.032 11.016C29.7333 11.016 29.456 11.0053 29.2 10.984V18.408C29.2 19.0267 29.2533 19.496 29.36 19.816C29.4667 20.136 29.68 20.3493 30 20.456C30.32 20.5627 30.8107 20.616 31.472 20.616C31.5147 20.616 31.536 20.68 31.536 20.808C31.536 20.936 31.5147 21 31.472 21C30.9173 21 30.2987 20.9893 29.616 20.968C28.9333 20.9467 28.1867 20.936 27.376 20.936C26.608 20.936 25.872 20.9467 25.168 20.968C24.4853 20.9893 23.8667 21 23.312 21C23.248 21 23.216 20.936 23.216 20.808C23.216 20.68 23.248 20.616 23.312 20.616C23.9733 20.616 24.464 20.5627 24.784 20.456C25.104 20.3493 25.3173 20.136 25.424 19.816C25.552 19.496 25.616 19.0267 25.616 18.408V3.592C25.616 2.97333 25.5627 2.51467 25.456 2.216C25.3493 1.896 25.136 1.68266 24.816 1.576C24.496 1.448 24.0053 1.384 23.344 1.384C23.3013 1.384 23.28 1.32 23.28 1.192C23.28 1.064 23.3013 1 23.344 1C23.8987 1 24.5173 1.02133 25.2 1.064C25.8827 1.08533 26.608 1.096 27.376 1.096C28.016 1.096 28.7093 1.064 29.456 1C30.224 0.936 30.96 0.903999 31.664 0.903999ZM34.16 6.184C34.16 4.92533 34.032 3.96533 33.776 3.304C33.52 2.64267 33.168 2.19467 32.72 1.96C32.272 1.704 31.76 1.576 31.184 1.576C30.6933 1.576 30.2987 1.65067 30 1.8C29.7227 1.928 29.52 2.152 29.392 2.472C29.264 2.77067 29.2 3.16533 29.2 3.656V10.056C29.4987 10.0987 29.8187 10.1307 30.16 10.152C30.5013 10.1733 30.8 10.184 31.056 10.184C32.1867 10.184 32.9867 9.90667 33.456 9.352C33.9253 8.79733 34.16 7.74133 34.16 6.184ZM59.7998 21H45.6558C45.5918 21 45.5598 20.936 45.5598 20.808C45.5598 20.68 45.5918 20.616 45.6558 20.616C46.3171 20.616 46.8078 20.5627 47.1278 20.456C47.4478 20.3493 47.6611 20.136 47.7678 19.816C47.8744 19.496 47.9278 19.0267 47.9278 18.408V3.592C47.9278 2.97333 47.8744 2.51467 47.7678 2.216C47.6611 1.896 47.4478 1.68266 47.1278 1.576C46.8078 1.448 46.3171 1.384 45.6558 1.384C45.5918 1.384 45.5598 1.32 45.5598 1.192C45.5598 1.064 45.5918 1 45.6558 1H59.2238C59.4371 1 59.5438 1.096 59.5438 1.288L59.6078 5.544C59.6078 5.58667 59.5544 5.61867 59.4478 5.64C59.3411 5.66133 59.2664 5.64 59.2238 5.576C58.8824 4.31733 58.3064 3.4 57.4958 2.824C56.6851 2.22667 55.6184 1.928 54.2958 1.928H53.3358C52.9091 1.928 52.5571 1.992 52.2798 2.12C52.0024 2.22667 51.7998 2.408 51.6718 2.664C51.5438 2.92 51.4798 3.24 51.4798 3.624V18.28C51.4798 18.6853 51.5331 19.0267 51.6398 19.304C51.7464 19.5813 51.9064 19.784 52.1198 19.912C52.3331 20.04 52.6104 20.104 52.9518 20.104H54.0078C55.6718 20.104 57.0051 19.7627 58.0078 19.08C59.0104 18.3973 59.7464 17.3413 60.2158 15.912C60.2371 15.848 60.3011 15.8373 60.4078 15.88C60.5358 15.9013 60.5998 15.9333 60.5998 15.976C60.5144 16.5947 60.4398 17.3307 60.3758 18.184C60.3118 19.016 60.2798 19.7947 60.2798 20.52C60.2798 20.84 60.1198 21 59.7998 21ZM58.0078 13.864C58.0078 12.9893 57.6771 12.3067 57.0158 11.816C56.3544 11.304 55.3838 11.048 54.1038 11.048H49.7838V10.152H54.1358C55.3944 10.152 56.3438 9.93867 56.9838 9.512C57.6451 9.064 57.9758 8.46667 57.9758 7.72C57.9758 7.656 58.0291 7.624 58.1358 7.624C58.2638 7.624 58.3278 7.656 58.3278 7.72C58.3278 8.424 58.3171 8.97867 58.2958 9.384C58.2958 9.768 58.2958 10.1733 58.2958 10.6C58.2958 11.1333 58.3064 11.656 58.3278 12.168C58.3704 12.68 58.3918 13.2453 58.3918 13.864C58.3918 13.9067 58.3278 13.928 58.1998 13.928C58.0718 13.928 58.0078 13.9067 58.0078 13.864ZM77.456 21H63.312C63.248 21 63.216 20.936 63.216 20.808C63.216 20.68 63.248 20.616 63.312 20.616C63.9733 20.616 64.464 20.5627 64.784 20.456C65.104 20.3493 65.3173 20.136 65.424 19.816C65.5307 19.496 65.584 19.0267 65.584 18.408V3.592C65.584 2.97333 65.5307 2.51467 65.424 2.216C65.3173 1.896 65.104 1.68266 64.784 1.576C64.464 1.448 63.9733 1.384 63.312 1.384C63.248 1.384 63.216 1.32 63.216 1.192C63.216 1.064 63.248 1 63.312 1H76.88C77.0933 1 77.2 1.096 77.2 1.288L77.264 5.544C77.264 5.58667 77.2107 5.61867 77.104 5.64C76.9973 5.66133 76.9227 5.64 76.88 5.576C76.5387 4.31733 75.9627 3.4 75.152 2.824C74.3413 2.22667 73.2747 1.928 71.952 1.928H70.992C70.5653 1.928 70.2133 1.992 69.936 2.12C69.6587 2.22667 69.456 2.408 69.328 2.664C69.2 2.92 69.136 3.24 69.136 3.624V18.28C69.136 18.6853 69.1893 19.0267 69.296 19.304C69.4027 19.5813 69.5627 19.784 69.776 19.912C69.9893 20.04 70.2667 20.104 70.608 20.104H71.664C73.328 20.104 74.6613 19.7627 75.664 19.08C76.6667 18.3973 77.4027 17.3413 77.872 15.912C77.8933 15.848 77.9573 15.8373 78.064 15.88C78.192 15.9013 78.256 15.9333 78.256 15.976C78.1707 16.5947 78.096 17.3307 78.032 18.184C77.968 19.016 77.936 19.7947 77.936 20.52C77.936 20.84 77.776 21 77.456 21ZM75.664 13.864C75.664 12.9893 75.3333 12.3067 74.672 11.816C74.0107 11.304 73.04 11.048 71.76 11.048H67.44V10.152H71.792C73.0507 10.152 74 9.93867 74.64 9.512C75.3013 9.064 75.632 8.46667 75.632 7.72C75.632 7.656 75.6853 7.624 75.792 7.624C75.92 7.624 75.984 7.656 75.984 7.72C75.984 8.424 75.9733 8.97867 75.952 9.384C75.952 9.768 75.952 10.1733 75.952 10.6C75.952 11.1333 75.9627 11.656 75.984 12.168C76.0267 12.68 76.048 13.2453 76.048 13.864C76.048 13.9067 75.984 13.928 75.856 13.928C75.728 13.928 75.664 13.9067 75.664 13.864ZM83.7203 16.936V1.736L84.6803 1.8V16.936C84.6803 18.0667 84.9149 18.9627 85.3843 19.624C85.8536 20.2853 86.5043 20.616 87.3363 20.616C87.3789 20.616 87.4003 20.68 87.4003 20.808C87.4003 20.936 87.3789 21 87.3363 21C86.8669 21 86.3763 20.9893 85.8643 20.968C85.3736 20.9467 84.8296 20.936 84.2323 20.936C83.5923 20.936 82.9629 20.9467 82.3443 20.968C81.7469 20.9893 81.1923 21 80.6803 21C80.6163 21 80.5843 20.936 80.5843 20.808C80.5843 20.68 80.6163 20.616 80.6803 20.616C81.6189 20.616 82.3549 20.2853 82.8883 19.624C83.4429 18.9627 83.7203 18.0667 83.7203 16.936ZM100.04 21.48C100.04 21.544 99.9869 21.576 99.8803 21.576C99.7949 21.5973 99.7309 21.5973 99.6883 21.576L83.9123 3.624C83.1443 2.74933 82.4936 2.16267 81.9603 1.864C81.4269 1.544 80.8936 1.384 80.3603 1.384C80.3176 1.384 80.2963 1.32 80.2963 1.192C80.2963 1.064 80.3176 1 80.3603 1C80.7869 1 81.2243 1.01067 81.6723 1.032C82.1203 1.05333 82.5363 1.064 82.9203 1.064C83.6883 1.064 84.3816 1.05333 85.0003 1.032C85.6189 1.01067 86.0989 1 86.4403 1C86.7176 1 86.9203 1.128 87.0483 1.384C87.1976 1.61867 87.5283 2.04533 88.0403 2.664L99.7843 16.2L100.04 21.48ZM100.04 5.096V21.48L99.1123 20.52V5.096C99.1123 3.96533 98.8776 3.06933 98.4083 2.408C97.9389 1.72533 97.2883 1.384 96.4563 1.384C96.4136 1.384 96.3923 1.32 96.3923 1.192C96.3923 1.064 96.4136 1 96.4563 1C96.9256 1 97.4056 1.02133 97.8963 1.064C98.4083 1.08533 98.9629 1.096 99.5603 1.096C100.136 1.096 100.702 1.08533 101.256 1.064C101.811 1.02133 102.323 1 102.792 1C102.835 1 102.856 1.064 102.856 1.192C102.856 1.32 102.835 1.384 102.792 1.384C101.939 1.384 101.267 1.72533 100.776 2.408C100.286 3.06933 100.04 3.96533 100.04 5.096Z" fill="#DDEEDB"/>
</svg>
